<svg width="1600" height="1000" viewBox="0 0 1600 1000" fill="none" xmlns="http://www.w3.org/2000/svg">
  <rect width="1600" height="1000" fill="#2F1D16"/>
  <rect width="1600" height="1000" fill="url(#paint0_linear_1_2)"/>
  <ellipse cx="1176" cy="258" rx="250" ry="170" fill="#D9B48E" fill-opacity="0.22"/>
  <ellipse cx="380" cy="230" rx="330" ry="180" fill="#FFF1E3" fill-opacity="0.12"/>
  <rect x="120" y="150" width="640" height="640" rx="48" fill="#4A3126" fill-opacity="0.38"/>
  <rect x="890" y="180" width="520" height="540" rx="40" fill="#FFF7F0" fill-opacity="0.08"/>
  <rect x="180" y="590" width="1240" height="180" rx="36" fill="#20130E" fill-opacity="0.5"/>
  <circle cx="1195" cy="525" r="168" fill="#7B5844"/>
  <circle cx="1195" cy="525" r="128" fill="#F9E4CC"/>
  <circle cx="1195" cy="525" r="104" fill="#6D3D23"/>
  <path d="M1085 530C1114.33 490.667 1186 461 1250 497" stroke="#FFF7F0" stroke-width="18" stroke-linecap="round"/>
  <path d="M1120 590C1152.67 553.333 1220.4 530 1275 563" stroke="#FFF7F0" stroke-width="16" stroke-linecap="round"/>
  <rect x="290" y="360" width="290" height="160" rx="26" fill="#FFF7F0" fill-opacity="0.13"/>
  <text x="320" y="425" fill="#FFF7F0" font-family="Georgia, serif" font-size="48" font-weight="700">Brew Haven</text>
  <text x="320" y="470" fill="#F7DDC0" font-family="Verdana, sans-serif" font-size="22">Warm coffee. Calm interiors.</text>
  <defs>
    <linearGradient id="paint0_linear_1_2" x1="180" y1="80" x2="1400" y2="860" gradientUnits="userSpaceOnUse">
      <stop stop-color="#6B442E"/>
      <stop offset="0.5" stop-color="#3A241A"/>
      <stop offset="1" stop-color="#1F130F"/>
    </linearGradient>
  </defs>
</svg>
